<svg xmlns="http://www.w3.org/2000/svg" viewBox="0 0 59.36 11.9"><defs><style>.cls-1{fill:#fff;}</style></defs><g id="레이어_2" data-name="레이어 2"><g id="레이어_1-2" data-name="레이어 1"><path class="cls-1" d="M2.18,11.9a1.21,1.21,0,0,1-.89-.33,1.3,1.3,0,0,1-.32-1,1.29,1.29,0,0,1,.33-.95,1.19,1.19,0,0,1,.88-.34,1.21,1.21,0,0,1,.89.34,1.29,1.29,0,0,1,.33.95,1.35,1.35,0,0,1-.32,1A1.22,1.22,0,0,1,2.18,11.9Zm5.29,0a1.18,1.18,0,0,1-.89-.33,1.31,1.31,0,0,1-.33-1,1.29,1.29,0,0,1,.33-.95,1.23,1.23,0,0,1,.89-.34,1.21,1.21,0,0,1,.89.34,1.29,1.29,0,0,1,.33.95,1.31,1.31,0,0,1-.33,1A1.18,1.18,0,0,1,7.47,11.9Z"/><path class="cls-1" d="M0,4.56A5.36,5.36,0,0,1,.22,3,3.61,3.61,0,0,1,1,1.65a3.75,3.75,0,0,1,1.38-1A4,4,0,0,1,4.18.3l.68,1.5L5.53.3A3.92,3.92,0,0,1,7.36.67a3.75,3.75,0,0,1,1.38,1A3.61,3.61,0,0,1,9.49,3a5.37,5.37,0,0,1,.23,1.54V6.35a3.25,3.25,0,0,1-.11.9,1.19,1.19,0,0,1-.92.88,3.67,3.67,0,0,1-.88.09H1.91A3.67,3.67,0,0,1,1,8.13a1.27,1.27,0,0,1-.6-.31A1.23,1.23,0,0,1,.1,7.25a3.29,3.29,0,0,1-.1-.9ZM4.27,2.75a2.31,2.31,0,0,0-1.62.51,1.76,1.76,0,0,0-.56,1.37v.79a.46.46,0,0,0,.06.28.41.41,0,0,0,.29.07H7.28c.14,0,.24,0,.28-.07a.39.39,0,0,0,.07-.28V4.63a1.79,1.79,0,0,0-.56-1.37,2.36,2.36,0,0,0-1.63-.51Z"/><path class="cls-1" d="M23.52.82a.75.75,0,0,0-.08-.35.7.7,0,0,0-.19-.26A.72.72,0,0,0,23,.06,1,1,0,0,0,22,.21a.74.74,0,0,0-.25.61v10h1.74Z"/><path class="cls-1" d="M17.53,4.4a.81.81,0,0,0-.37.08.62.62,0,0,0-.25.19.72.72,0,0,0-.14.26,1.1,1.1,0,0,0,0,.31,1.2,1.2,0,0,0,0,.31.94.94,0,0,0,.14.26.79.79,0,0,0,.25.19,1,1,0,0,0,.37.07h1.4a.2.2,0,0,1,.2.2v4.6h1.68V.82a.75.75,0,0,0-.07-.35.7.7,0,0,0-.19-.26.72.72,0,0,0-.27-.15A1,1,0,0,0,20,0a.85.85,0,0,0-.59.21.73.73,0,0,0-.23.61V4.2a.2.2,0,0,1-.2.2Z"/><path class="cls-1" d="M32.85,6a.2.2,0,0,1,.2.2v4.69h2V1A1.08,1.08,0,0,0,35,.54a1.06,1.06,0,0,0-.22-.29A1.15,1.15,0,0,0,34,0a1,1,0,0,0-.7.25.87.87,0,0,0-.29.71V4.13a.2.2,0,0,1-.2.2H31.28a.2.2,0,0,1-.2-.2V3.22a3.54,3.54,0,0,0-.23-1.32A2.66,2.66,0,0,0,30.23,1a2.53,2.53,0,0,0-1-.56A4.06,4.06,0,0,0,28,.19a4.12,4.12,0,0,0-1.3.2,2.6,2.6,0,0,0-1,.56,2.55,2.55,0,0,0-.63,1,3.54,3.54,0,0,0-.23,1.32V7.61a3.63,3.63,0,0,0,.23,1.33,2.59,2.59,0,0,0,.63.94,2.77,2.77,0,0,0,1,.57,4.43,4.43,0,0,0,1.3.19,4.37,4.37,0,0,0,1.29-.19,2.49,2.49,0,0,0,1.59-1.51,3.63,3.63,0,0,0,.23-1.33V6.18a.2.2,0,0,1,.2-.2ZM29.14,7.67a1.5,1.5,0,0,1-.32,1,1.11,1.11,0,0,1-.85.36,1.1,1.1,0,0,1-.85-.36,1.46,1.46,0,0,1-.32-1V3.16a1.46,1.46,0,0,1,.32-1A1.1,1.1,0,0,1,28,1.76a1.11,1.11,0,0,1,.85.36,1.5,1.5,0,0,1,.32,1Z"/><path class="cls-1" d="M37.35,5.06a.85.85,0,0,0,.43.24,3.05,3.05,0,0,0,.82.08h8.2V1.88A4.84,4.84,0,0,0,46.74,1a1,1,0,0,0-.21-.47.9.9,0,0,0-.42-.24,3.69,3.69,0,0,0-.83-.08H38.6a3.53,3.53,0,0,0-.82.08.93.93,0,0,0-.43.24.92.92,0,0,0-.2.47,4.06,4.06,0,0,0-.07.84V3.76a3.93,3.93,0,0,0,.07.84A.89.89,0,0,0,37.35,5.06Zm1.72-2.84a.52.52,0,0,1,.11-.38.51.51,0,0,1,.38-.12h4.75a.53.53,0,0,1,.37.11.49.49,0,0,1,.13.39V3.71a.2.2,0,0,1-.2.2h-5a.55.55,0,0,1-.38-.11.58.58,0,0,1-.11-.4Z"/><path class="cls-1" d="M47.32,7.11a.89.89,0,0,0-.14-.25.61.61,0,0,0-.24-.17,1,1,0,0,0-.38-.07H37.34a1,1,0,0,0-.39.07.61.61,0,0,0-.24.17.67.67,0,0,0-.13.25,1,1,0,0,0,0,.3.88.88,0,0,0,.19.55.74.74,0,0,0,.62.22h3.38a.2.2,0,0,1,.2.2v2.55h2V8.38a.2.2,0,0,1,.2-.2h3.39A.73.73,0,0,0,47.17,8a.88.88,0,0,0,.19-.55A1,1,0,0,0,47.32,7.11Z"/><path class="cls-1" d="M59.32,9.51a.68.68,0,0,0-.14-.25.73.73,0,0,0-.26-.19A.88.88,0,0,0,58.53,9H49.36a.94.94,0,0,0-.39.07.69.69,0,0,0-.25.19.56.56,0,0,0-.14.25,1.18,1.18,0,0,0,0,.31,1.12,1.12,0,0,0,0,.31.64.64,0,0,0,.15.25.52.52,0,0,0,.25.18.86.86,0,0,0,.38.07h9.17a.88.88,0,0,0,.39-.07.64.64,0,0,0,.25-.18.77.77,0,0,0,.14-.25.84.84,0,0,0,0-.31A1.15,1.15,0,0,0,59.32,9.51Z"/><path class="cls-1" d="M49.54,6.13a1,1,0,0,0,.5.27,3,3,0,0,0,.86.1H58a.63.63,0,0,0,.55-.26A.82.82,0,0,0,58.71,6a1,1,0,0,0,0-.29,1,1,0,0,0,0-.28,1.05,1.05,0,0,0-.13-.26A.71.71,0,0,0,58.35,5,.67.67,0,0,0,58,4.9H51.75a.48.48,0,0,1-.53-.54V2.51a.51.51,0,0,1,.13-.4.58.58,0,0,1,.4-.12h6.07a.69.69,0,0,0,.34-.07.79.79,0,0,0,.22-.18.75.75,0,0,0,.13-.25,1.54,1.54,0,0,0,0-.3,1.55,1.55,0,0,0,0-.29.79.79,0,0,0-.13-.26.58.58,0,0,0-.22-.18.68.68,0,0,0-.34-.08H50.9a3.44,3.44,0,0,0-.86.1,1.06,1.06,0,0,0-.78.78,3.21,3.21,0,0,0-.09.82V4.79a3.37,3.37,0,0,0,.09.84A1.17,1.17,0,0,0,49.54,6.13Z"/><path class="cls-1" d="M18.17,9.28a.45.45,0,0,0-.11-.23.6.6,0,0,0-.21-.17.88.88,0,0,0-.35-.06H15.55a.61.61,0,0,1-.44-.12A.61.61,0,0,1,15,8.25V2.76L13.14,1.35a6,6,0,0,0,0,.67V8.78a5.18,5.18,0,0,0,.06.88.85.85,0,0,0,.19.45.83.83,0,0,0,.44.21,4.3,4.3,0,0,0,.9.07H17.5a.63.63,0,0,0,.55-.21,1,1,0,0,0,.16-.58A1.12,1.12,0,0,0,18.17,9.28Z"/><path class="cls-1" d="M15.09,2.14s0,0,0,0A.61.61,0,0,1,15.55,2h1.7a.63.63,0,0,0,.55-.21A1,1,0,0,0,18,1.2a1.12,1.12,0,0,0,0-.32.55.55,0,0,0-.11-.23A.6.6,0,0,0,17.6.48a.88.88,0,0,0-.35-.06H14.69a4.3,4.3,0,0,0-.9.07.83.83,0,0,0-.44.21.56.56,0,0,0,0,.08Z"/></g></g></svg>