<svg xmlns="http://www.w3.org/2000/svg" viewBox="0 0 772.28 25.14"><defs><style>.cls-1{fill:#f8d1d150;}</style></defs><g id="레이어_2" data-name="레이어 2"><g id="Layer_1" data-name="Layer 1"><path class="cls-1" d="M333.27,11H0v3.15H333.38c12,1.42,27.53,4,39.63,8.8a16.66,16.66,0,0,1,0-20.76C360.87,7,345.26,9.57,333.27,11ZM386.14,0A12.57,12.57,0,1,0,398.7,12.56,12.56,12.56,0,0,0,386.14,0ZM439,11c-12-1.42-27.6-4-39.75-8.81a16.67,16.67,0,0,1,0,20.76c12.1-4.76,27.65-7.38,39.63-8.8H772.28V11Z"/></g></g></svg>